<svg xmlns="http://www.w3.org/2000/svg" width="34" height="34" viewBox="0 0 34 34"><defs><style>.a{fill:#fff;}.a,.b{stroke:#9f9f9f;}.b,.d{fill:none;}.b{stroke-linecap:round;stroke-linejoin:round;stroke-miterlimit:10;}.c{stroke:none;}</style></defs><g transform="translate(-434 -31)"><g class="a" transform="translate(434 31)"><circle class="c" cx="17" cy="17" r="17"/><circle class="d" cx="17" cy="17" r="16.5"/></g><g transform="translate(414.307 6.828)"><path class="b" d="M41.2,49.288l-4.709-2.615-4.743,2.388a.814.814,0,0,1-1.1-.879c.151-.775,1.011-5.19,1.011-5.19s-3.22-3.277-3.7-3.733a.783.783,0,0,1,.529-1.367l5.178-.633s2.287-4.378,2.5-4.779a.812.812,0,0,1,1.3.036L39.735,37.4s4.95.828,5.362.9a.733.733,0,0,1,.3,1.264l-3.92,3.651s.74,4.9.816,5.5S41.69,49.562,41.2,49.288Z" transform="translate(0 0)"/></g></g></svg>